<svg width="1920" height="1080" viewBox="0 0 1920 1080" fill="none" xmlns="http://www.w3.org/2000/svg">
<rect width="1920" height="1080" fill="#0B0B0B"/>
<g clip-path="url(#clip0_2617_13)">
<path d="M866.744 530.546C872.19 486.006 894.891 471.72 915.218 459.062C935.974 446.131 953.927 434.805 951.767 392.25C942.299 392.927 932.977 394.957 924.085 398.278C924.988 432.05 908.99 442.066 893.465 451.738C877.068 461.95 861.58 471.599 860.609 509.678C861.906 516.926 863.967 523.923 866.744 530.546Z" fill="white"/>
<path d="M888.735 444.145C903.204 435.126 914.905 427.749 915.169 402.119C888.833 415.028 868.98 439.177 861.875 468.277C869.168 456.343 879.304 450.016 888.735 444.145ZM891.377 565.592C894.901 518.124 915.728 501.558 935.925 485.519C957.866 468.098 978.6 451.59 977.433 393.677C971.91 392.65 966.31 392.089 960.692 392C963.008 439.669 941.166 453.432 919.945 466.65C898.446 480.041 876.259 493.943 874.551 545.44C879.256 552.863 884.913 559.638 891.377 565.592ZM998.471 513.402C1018.51 497.319 1037.42 482.009 1036.41 428.638C1031 422.062 1024.79 416.197 1017.91 411.182C1017.63 469.489 994.965 487.714 972.998 505.34C952.322 521.934 932.804 537.633 931.374 588.128C939.619 590.498 948.289 591.844 957.249 592.004C959.606 544.729 979.329 528.77 998.471 513.402ZM1032.06 534.261C1017.71 543.007 1005.26 550.676 1003.81 581.43C1031.33 567.6 1051.62 541.451 1057.39 510.245C1050.95 522.738 1041.17 528.712 1032.06 534.261Z" fill="white"/>
<path d="M888.735 444.145C903.204 435.126 914.905 427.749 915.169 402.119C888.833 415.028 868.98 439.177 861.875 468.277C869.168 456.343 879.304 450.016 888.735 444.145ZM891.377 565.592C894.901 518.124 915.728 501.558 935.925 485.519C957.866 468.098 978.6 451.59 977.433 393.677C971.91 392.65 966.31 392.089 960.692 392C963.008 439.669 941.166 453.432 919.945 466.65C898.446 480.041 876.259 493.943 874.551 545.44C879.256 552.863 884.913 559.638 891.377 565.592ZM998.471 513.402C1018.51 497.319 1037.42 482.009 1036.41 428.638C1031 422.062 1024.79 416.197 1017.91 411.182C1017.63 469.489 994.965 487.714 972.998 505.34C952.322 521.934 932.804 537.633 931.374 588.128C939.619 590.498 948.289 591.844 957.249 592.004C959.606 544.729 979.329 528.77 998.471 513.402ZM1032.06 534.261C1017.71 543.007 1005.26 550.676 1003.81 581.43C1031.33 567.6 1051.62 541.451 1057.39 510.245C1050.95 522.738 1041.17 528.712 1032.06 534.261Z" fill="white"/>
<path d="M1027.41 526.629C1042.78 517.257 1057.31 508.412 1055.54 467.289L1056 467.271C1053.66 458.113 1050.02 449.337 1045.2 441.207C1043.08 488.917 1023.31 504.942 1004.08 520.378C985.777 535.053 968.513 549.035 966.228 591.754C975.983 591.064 985.584 588.94 994.72 585.449C995.265 546.218 1012.34 535.813 1027.41 526.629ZM967.409 498.365C989.385 480.734 1010.15 464.034 1008.93 405.334C1001.85 401.241 994.295 398.036 986.43 395.792C987.069 456.334 963.907 474.72 941.488 492.521C921.072 508.73 901.805 524.129 899.967 572.657C906.935 577.776 914.539 581.968 922.587 585.128C924.796 532.701 946.429 515.2 967.409 498.365Z" fill="white"/>
</g>
<path d="M874.584 668L864.728 625.76H873.496L880.536 660.96H881.176L889.048 625.76H899.48L907.288 660.96H907.992L915.096 625.76H923.48L913.432 668H902.04L894.424 632.8H893.848L886.232 668H874.584ZM935.663 668.832C933.828 668.832 932.186 668.491 930.735 667.808C929.284 667.083 928.132 666.016 927.279 664.608C926.468 663.2 926.063 661.451 926.063 659.36C926.063 657.611 926.383 656.117 927.023 654.88C927.706 653.643 928.708 652.64 930.031 651.872C931.354 651.061 932.996 650.4 934.959 649.888C936.922 649.333 939.226 648.864 941.871 648.48C943.322 648.267 944.495 648.053 945.391 647.84C946.33 647.627 947.012 647.307 947.439 646.88C947.866 646.411 948.079 645.728 948.079 644.832C948.079 643.509 947.61 642.379 946.671 641.44C945.775 640.459 944.303 639.968 942.255 639.968C941.018 639.968 939.823 640.181 938.671 640.608C937.562 641.035 936.602 641.717 935.791 642.656C934.98 643.552 934.426 644.747 934.127 646.24L926.895 644C927.364 642.293 928.047 640.821 928.943 639.584C929.839 638.304 930.948 637.216 932.271 636.32C933.594 635.424 935.108 634.763 936.815 634.336C938.522 633.909 940.399 633.696 942.447 633.696C945.562 633.696 948.122 634.208 950.127 635.232C952.132 636.213 953.626 637.771 954.607 639.904C955.588 641.995 956.079 644.704 956.079 648.032V654.304C956.079 655.755 956.1 657.269 956.143 658.848C956.228 660.384 956.314 661.941 956.399 663.52C956.527 665.056 956.676 666.549 956.847 668H949.615C949.444 666.805 949.295 665.525 949.167 664.16C949.039 662.795 948.932 661.408 948.847 660H947.823C947.226 661.621 946.372 663.115 945.263 664.48C944.154 665.803 942.788 666.869 941.167 667.68C939.588 668.448 937.754 668.832 935.663 668.832ZM938.863 662.88C939.716 662.88 940.57 662.731 941.423 662.432C942.319 662.133 943.194 661.685 944.047 661.088C944.9 660.491 945.69 659.765 946.415 658.912C947.14 658.016 947.759 656.971 948.271 655.776L948.143 650.08L949.679 650.336C948.954 650.933 948.058 651.403 946.991 651.744C945.924 652.085 944.794 652.341 943.599 652.512C942.447 652.683 941.274 652.896 940.079 653.152C938.927 653.365 937.882 653.664 936.943 654.048C936.004 654.389 935.258 654.901 934.703 655.584C934.148 656.224 933.871 657.12 933.871 658.272C933.871 659.723 934.34 660.853 935.279 661.664C936.218 662.475 937.412 662.88 938.863 662.88ZM971.601 668L960.145 634.592H969.105L976.849 661.536H977.809L985.553 634.592H994.257L982.737 668H971.601ZM1014.02 668.832C1011.34 668.832 1008.92 668.448 1006.79 667.68C1004.7 666.912 1002.93 665.803 1001.48 664.352C1000.03 662.859 998.919 661.067 998.151 658.976C997.383 656.885 996.999 654.517 996.999 651.872C996.999 649.227 997.362 646.795 998.087 644.576C998.855 642.357 999.943 640.437 1001.35 638.816C1002.76 637.195 1004.47 635.936 1006.47 635.04C1008.52 634.144 1010.84 633.696 1013.45 633.696C1015.88 633.696 1018.06 634.101 1019.98 634.912C1021.9 635.723 1023.52 636.939 1024.84 638.56C1026.16 640.139 1027.14 642.123 1027.78 644.512C1028.42 646.859 1028.64 649.589 1028.42 652.704L1002.25 652.896V648.224L1023.75 648.032L1020.94 650.656C1021.19 648.224 1021 646.24 1020.36 644.704C1019.72 643.125 1018.8 641.973 1017.61 641.248C1016.41 640.48 1015.05 640.096 1013.51 640.096C1011.76 640.096 1010.23 640.565 1008.9 641.504C1007.58 642.4 1006.56 643.723 1005.83 645.472C1005.15 647.179 1004.81 649.269 1004.81 651.744C1004.81 655.456 1005.62 658.229 1007.24 660.064C1008.9 661.899 1011.16 662.816 1014.02 662.816C1015.3 662.816 1016.37 662.667 1017.22 662.368C1018.12 662.027 1018.87 661.6 1019.46 661.088C1020.06 660.533 1020.53 659.915 1020.87 659.232C1021.26 658.549 1021.55 657.824 1021.77 657.056L1028.81 658.656C1028.47 660.235 1027.91 661.643 1027.14 662.88C1026.38 664.117 1025.37 665.184 1024.14 666.08C1022.94 666.976 1021.51 667.659 1019.85 668.128C1018.18 668.597 1016.24 668.832 1014.02 668.832ZM1035.79 668V622.56H1043.73V668H1035.79Z" fill="white"/>
<defs>
<clipPath id="clip0_2617_13">
<rect width="200" height="200" fill="white" transform="translate(859 392)"/>
</clipPath>
</defs>
</svg>
