<svg width="292" height="215" viewBox="0 0 292 215" fill="none" xmlns="http://www.w3.org/2000/svg">
<path d="M291.6 98.7163C291.6 98.7163 291.584 98.7163 291.574 98.7163C291.574 95.2625 291.597 91.8086 291.6 88.3548V80.1511C291.597 78.1877 291.581 76.2178 291.555 74.2608C291.444 66.7861 291.179 59.3147 290.887 51.8465C290.819 50.3561 290.382 48.8722 289.999 47.4174C289.863 46.8731 289.403 46.4033 289.089 45.9011C288.917 45.9108 288.752 45.927 288.571 45.9367C288.415 46.7467 288.179 47.547 288.117 48.3635C288.013 49.7567 287.958 51.0138 286.241 51.5873C285.736 51.7493 285.366 52.9708 285.314 53.7257C285.023 57.74 284.76 61.7544 284.676 65.7752C284.491 74.8732 284.41 83.9646 284.291 93.0593C284.287 93.5291 284.291 94.0021 284.223 94.4622C283.5 90.2372 283.973 85.8503 282.59 81.7258C282.389 81.6998 282.194 81.6739 281.993 81.6512C281.569 83.5013 281.148 85.3513 280.727 87.1949C280.526 87.1754 280.335 87.1495 280.143 87.1268C278.851 84.8815 279.191 82.283 278.867 79.8304C278.731 79.8304 278.595 79.8304 278.472 79.8271C278.154 84.982 277.83 90.1303 277.503 95.2852C277.431 95.2787 277.36 95.2754 277.282 95.269C277.072 89.3981 276.861 83.5402 276.641 77.6693C276.511 77.666 276.378 77.666 276.249 77.6596C275.905 80.4557 275.552 83.2453 275.206 86.0414C275.144 86.0414 275.086 86.0414 275.014 86.0414C274.814 81.2657 274.619 76.5029 274.415 71.7336C274.311 71.7336 274.217 71.7336 274.12 71.7368C273.842 73.7424 273.576 75.735 273.307 77.7406C273.129 77.7438 272.96 77.7438 272.785 77.7503C272.52 69.7118 272.264 61.6637 272.001 53.6285C271.959 53.6285 271.933 53.6285 271.891 53.6285C271.531 60.0372 271.169 66.4394 270.812 72.8482C270.747 72.8482 270.699 72.8482 270.631 72.8482C270.433 66.4297 270.245 60.0113 270.054 53.5928C269.908 53.5928 269.753 53.5961 269.61 53.5961C268.858 71.8016 268.104 90.004 267.504 104.526C267.002 84.9398 266.409 61.6993 265.787 38.4556C265.758 37.4414 265.366 36.4273 264.912 35.4067C264.744 37.8821 264.653 40.3704 264.378 42.836C264.102 45.3568 263.649 47.858 263.282 50.3593C263.072 50.3561 262.861 50.3431 262.651 50.3334C262.437 47.6539 262.223 44.9842 262.009 42.3047C261.964 42.3047 261.925 42.3079 261.883 42.3079C261.555 45.4378 261.222 48.5806 260.888 51.7072C260.775 51.6974 260.648 51.6877 260.538 51.678C260.308 45.2369 260.075 38.7958 259.851 32.3579C259.725 32.3579 259.595 32.3579 259.466 32.3579C258.766 55.0768 258.069 77.7989 257.376 100.33C257.026 93.2828 256.663 86.0252 256.303 78.7774C256.161 78.7741 256.012 78.7676 255.869 78.7676C255.623 81.0227 255.38 83.2907 255.124 85.6073C254.849 81.2948 254.648 77.0602 254.265 72.8352C254.184 71.8859 253.472 71.0111 253.102 70.0747C252.678 69.0282 252.318 67.959 251.806 66.5464C250.889 75.3656 251.615 84.0035 249.49 92.6899C248.884 86.8709 248.314 81.3758 247.73 75.884C247.559 75.884 247.4 75.8808 247.225 75.8808C246.959 78.259 246.7 80.6339 246.438 83.012C245.433 75.1388 246.353 67.1522 244.743 59.36C244.552 59.2693 244.341 59.1818 244.14 59.0911C244.014 59.3698 243.8 59.6354 243.758 59.927C243.337 63.1249 241.234 65.7947 241.293 69.2291C241.399 74.8667 240.975 80.5075 240.797 86.1548C240.771 87.0361 240.797 87.9206 240.505 88.8084C240.175 74.7533 239.844 60.6917 239.511 46.643C239.449 46.643 239.391 46.643 239.336 46.643C239.073 61.061 238.807 75.479 238.548 89.9003C238.49 89.9003 238.441 89.9003 238.386 89.9003C238.04 76.5061 237.683 63.1055 237.333 49.7146C237.272 49.7146 237.213 49.7146 237.145 49.7146C236.889 58.9064 236.64 68.0983 236.39 77.2934C236.271 77.2967 236.154 77.3064 236.04 77.3129C235.797 74.6852 235.558 72.0641 235.315 69.4462C235.166 69.4397 235.013 69.4397 234.868 69.4332C234.621 80.4848 234.378 91.5397 234.129 102.582C234.067 102.582 234.003 102.582 233.941 102.588C232.81 79.8239 231.689 57.0596 230.568 34.2922C230.484 34.2922 230.393 34.2889 230.309 34.2889C230.092 48.7555 229.872 63.2221 229.661 77.692C229.609 77.692 229.573 77.692 229.541 77.6984C229.321 70.645 229.13 63.5915 228.848 56.5445C228.572 49.5202 228.196 42.4958 227.545 35.4748C226.178 48.8171 226.418 62.1853 226.1 75.5471C225.741 63.0277 225.374 50.5116 225.012 37.9922C224.905 37.989 224.791 37.9825 224.675 37.9793C224.626 38.475 224.607 38.9772 224.5 39.4567C224.043 41.5789 223.456 43.6784 223.129 45.8168C222.727 48.4931 222.42 51.2017 222.283 53.9006C221.904 61.1518 221.713 68.4126 221.286 75.6605C221.124 78.3594 220.537 81.0324 220.096 83.7086C220.002 84.2821 219.695 84.8329 219.102 85.3837C218.8 84.3275 218.496 83.268 218.198 82.2053C218.088 82.2053 217.968 82.2085 217.861 82.2085C217.861 82.944 217.916 83.6762 217.845 84.402C217.725 85.7498 217.459 86.9098 215.787 87.331C215.214 87.4703 214.702 88.5136 214.488 89.2426C214.18 90.2761 214.18 91.3972 213.795 92.502C213.377 88.7598 212.981 85.0176 212.541 81.2786C211.941 76.3052 211.42 71.3189 210.636 66.3682C210.386 64.8194 209.382 63.3971 208.329 61.9229C208.011 66.4556 207.687 70.9884 207.363 75.5212C206.631 64.1747 207.123 52.7926 205.578 41.5012C203.725 43.1762 204.732 45.4928 203.929 47.5405C203.43 47.1128 202.996 46.737 202.325 46.1635C202.124 47.4271 201.952 48.4704 201.781 49.5137C201.703 49.5299 201.615 49.5428 201.531 49.5623C201.155 47.1452 200.776 44.7347 200.384 42.3144C200.297 42.3144 200.213 42.3144 200.125 42.3144C199.963 43.8728 199.801 45.4216 199.646 46.9768C199.535 46.9865 199.441 46.9962 199.331 47.0059C199.098 45.0976 198.858 43.1924 198.618 41.2873C198.466 41.2808 198.307 41.2744 198.162 41.2711C197.825 55.8155 197.484 70.3566 197.148 84.8977C196.992 84.901 196.83 84.9139 196.668 84.9172C196.448 82.0498 196.231 79.1791 196.017 76.315C195.89 76.3214 195.761 76.3312 195.641 76.3344C195.038 82.1275 194.445 87.9174 193.843 93.704C193.723 93.7073 193.603 93.7138 193.483 93.717C193.272 88.1928 193.062 82.6686 192.851 77.1444C192.761 77.1347 192.68 77.125 192.602 77.1185C191.827 80.4362 191.053 83.754 190.292 87.0718C190.078 87.0458 189.861 87.0264 189.644 87.0005C188.043 80.2807 188.163 73.3277 186.844 66.5172C186.595 69.0736 186.339 71.6332 186.089 74.1863C186.031 74.1928 185.979 74.196 185.918 74.2025C185.59 71.6818 185.266 69.1708 184.949 66.65C184.823 66.6533 184.696 66.6533 184.573 66.6598C184.343 72.427 184.103 78.1942 183.87 83.9614C183.692 83.9646 183.52 83.9646 183.348 83.9711C182.775 77.2999 182.201 70.632 181.641 63.9576C181.544 63.9479 181.44 63.9382 181.349 63.9284C181.029 70.4149 180.708 76.8949 180.377 83.3749C180.225 83.3749 180.063 83.3749 179.914 83.3749C179.914 80.0442 179.982 76.6973 179.882 73.3666C179.814 70.8653 179.59 68.3575 179.308 65.8757C179.211 65.0462 178.605 64.2913 178.398 63.4716C178.038 62.0168 177.649 60.5362 177.523 59.049C177.371 57.2897 177.481 55.5044 177.481 53.7322C177.341 53.7192 177.196 53.7095 177.05 53.69C176.408 58.8287 175.76 63.9641 175.116 69.1027C174.876 69.0833 174.636 69.0671 174.393 69.0509C174.195 63.6336 173.994 58.2228 173.797 52.8055C173.761 52.8023 173.732 52.7926 173.693 52.7796C173.301 56.2172 172.912 59.6614 172.462 63.572C172.025 62.7588 171.811 62.3732 171.6 61.978C171.483 61.9812 171.373 61.9812 171.263 61.9877C171.004 67.6706 170.748 73.3633 170.492 79.0528C168.694 68.7755 168.584 58.3945 167.958 48.033C167.621 60.034 167.281 72.0349 166.947 84.0326C166.896 84.0326 166.841 84.0326 166.789 84.0326C166.523 73.8979 166.264 63.7729 165.998 53.6382C165.937 53.6382 165.878 53.635 165.807 53.635C165.444 61.3494 165.072 69.0671 164.712 76.7815C164.66 76.7815 164.605 76.7848 164.56 76.7848C164.3 64.3367 164.028 51.8854 163.769 39.4373C163.688 39.4308 163.607 39.4276 163.516 39.4276C163.196 48.2242 162.872 57.0305 162.544 65.8336C162.46 65.8368 162.373 65.8368 162.292 65.8368C162.049 55.4299 161.806 45.0101 161.563 34.6032C161.401 34.6032 161.235 34.6032 161.077 34.6064C159.372 54.4514 159.813 74.371 159.013 94.2484C158.718 76.1854 158.417 58.1256 158.118 40.0658C157.344 57.523 157.995 75.0384 156.683 92.4826C156.531 92.5312 156.382 92.5862 156.226 92.6284C155.957 92.0873 155.526 91.5656 155.449 91.0019C154.895 87.0815 154.383 83.1546 153.9 79.2212C153.8 78.4274 153.89 77.6174 153.521 76.7815C153.336 77.6822 153.171 78.5765 152.986 79.4642C152.708 80.8218 151.946 81.5378 150.508 81.6026C148.991 81.6707 147.929 81.1652 147.588 79.6262C147.145 77.6952 146.791 75.7447 146.383 73.8007C146.283 73.3212 146.147 72.8417 145.651 72.4043C145.314 78.0678 144.977 83.7313 144.64 89.3948C144.582 89.3948 144.527 89.3948 144.468 89.3981C143.827 71.0467 143.185 52.6921 142.537 34.3472C142.404 34.3537 142.268 34.3537 142.126 34.357C141.906 46.1765 141.685 57.996 141.458 69.8123C141.322 69.8123 141.186 69.8155 141.047 69.822C139.702 57.5294 139.511 45.1753 139.271 32.8277C139.041 32.8277 138.818 32.8212 138.591 32.8212C137.959 47.3558 137.324 61.8872 136.731 75.7091C136.436 67.6156 136.122 58.7963 135.805 49.9835C135.701 49.9835 135.6 49.99 135.497 49.99C135.247 67.1749 134.991 84.3599 134.739 101.535C134.709 101.535 134.671 101.535 134.635 101.535C134.1 89.249 133.569 76.9662 133.034 64.6769C132.778 64.6736 132.516 64.6672 132.26 64.6639C132.062 67.8715 131.813 71.0726 131.7 74.2802C131.583 77.5721 131.583 80.8639 131.563 84.1558C131.541 87.4476 131.56 90.7297 131.35 94.0183C130.634 86.3492 130.737 78.6121 129.01 71.0402C127.909 76.3312 129.052 81.8424 127.138 87.0329C125.803 83.9743 126.101 80.7311 125.744 77.5397C124.497 82.5714 124.753 87.8656 123.272 92.839C123.058 92.839 122.835 92.8357 122.615 92.8292C122.372 90.6293 121.976 88.4358 121.921 86.2229C121.724 79.2731 121.672 72.32 121.539 65.367C121.503 63.5947 121.367 61.8322 121.111 60.0534C119.689 71.1536 119.491 82.3414 118.649 93.4902C118.412 84.7811 118.173 76.0622 117.93 67.3531C117.742 67.3369 117.554 67.3272 117.366 67.311C117.155 68.1793 116.945 69.0476 116.737 69.916C116.585 69.9289 116.429 69.9451 116.277 69.9548C115.684 64.1034 115.095 58.2552 114.502 52.4005C114.44 52.3811 114.378 52.3649 114.317 52.3519C113.999 55.1772 113.614 57.996 113.374 60.8245C113.131 63.7373 112.992 66.663 112.891 69.5887C112.791 72.5144 112.862 75.4499 112.733 78.3659C112.606 81.2657 112.318 84.1558 111.829 87.0491C110.173 84.7001 110.575 81.9979 109.855 79.4286C109.525 84.9107 109.198 90.4057 108.87 95.8975C108.838 95.8975 108.806 95.9008 108.783 95.9008C108.485 86.333 108.18 76.7621 107.886 67.1976C107.749 67.1717 107.613 67.1458 107.481 67.1198C107.286 67.4114 107.088 67.6998 106.645 68.3575C105.261 61.0837 105.161 53.9784 104.088 46.9994C103.884 51.7298 103.677 56.4602 103.473 61.1939C103.375 61.1939 103.281 61.1874 103.188 61.1874C102.831 55.242 102.478 49.2998 102.122 43.3512C102.06 43.3577 101.992 43.3609 101.927 43.3609C101.7 49.7794 101.464 56.2043 101.237 62.6227C101.163 62.6227 101.085 62.6227 101.013 62.6292C100.767 59.3698 100.515 56.1168 100.268 52.8638C100.132 52.8671 99.9896 52.8671 99.8438 52.8671C99.6818 60.7954 99.5296 68.7269 99.3481 76.6552C99.157 84.6288 98.9302 92.6057 98.726 100.583C98.4668 100.583 98.2076 100.579 97.9517 100.579C96.7334 81.5897 97.2518 62.5385 96.3122 43.5132C95.3629 57.2087 94.4168 70.9042 93.4675 84.6029C93.3217 84.6061 93.1856 84.6061 93.0398 84.6126C92.7126 81.797 92.3756 78.988 92.0452 76.1692C91.6402 79.7429 92.0516 83.3879 90.8917 86.8482C90.72 86.8806 90.5548 86.913 90.383 86.9422C90.1174 86.1095 89.735 85.293 89.6216 84.4409C89.1518 80.919 88.8116 77.3906 88.3321 73.8688C88.2025 72.8935 87.7457 71.9572 87.156 71.0273C85.037 75.5179 86.3622 80.3714 85.2768 85.3448C85.0727 84.6709 84.8977 84.3469 84.875 84.01C84.4571 76.1886 84.0294 68.3575 83.6471 60.5362C83.4494 56.5736 83.3425 52.6046 83.1805 48.1853C82.6556 48.7782 82.4612 49.0018 81.878 49.666C81.5962 44.9518 81.3402 40.6361 81.0778 36.3172C80.9935 36.3172 80.906 36.3172 80.825 36.3172C80.4784 46.4681 80.1349 56.6093 79.785 66.757C79.7461 66.757 79.6943 66.757 79.6522 66.757C79.3897 50.9036 79.124 35.0471 78.8584 19.1938C78.7612 19.1938 78.6607 19.1905 78.5732 19.1905C78.2492 26.96 77.922 34.7263 77.598 42.4958C77.5397 42.4958 77.4846 42.4991 77.423 42.4991C77.423 41.945 77.4392 41.3813 77.423 40.8272C77.0926 29.4905 76.801 18.1602 76.396 6.82668C76.315 4.54248 75.7998 2.27124 75.4823 0C75.2717 0 75.0611 0 74.8537 0C74.7468 13.7473 74.6172 27.4946 74.5362 41.2387C74.4941 48.6583 74.5297 56.0812 74.5297 63.4975C74.371 63.4975 74.2154 63.4975 74.0632 63.4975C73.7586 47.5049 73.4605 31.4993 73.1689 15.5066C71.7595 39.3336 71.8502 63.2416 69.187 87.0134C67.3823 81.6059 68.7398 75.8776 67.1263 70.4603C65.205 76.2566 65.9956 82.3122 65.1694 88.2511C65.0592 87.4573 64.9588 86.657 64.8389 85.8665C64.5926 84.24 64.5019 82.6038 63.2869 81.2268C62.7718 80.6371 62.7264 79.5647 62.6324 78.6964C62.4121 76.5871 62.289 74.4714 62.0914 71.928C61.5438 73.2175 61.1712 74.0761 60.8083 74.9347C60.6172 74.925 60.4228 74.9153 60.2316 74.9056C58.5144 71.9053 59.0911 68.4547 58.7315 64.9264C58.1094 68.3608 58.5209 71.7239 57.1309 74.75C56.9527 74.7727 56.7713 74.7986 56.5898 74.8181C56.2982 73.5707 55.9418 72.3265 55.7312 71.0629C55.5142 69.7183 55.4396 68.364 55.0476 66.9935C54.8014 70.8944 54.5551 74.7922 54.3056 78.664C53.4244 76.9306 52.3649 75.3689 51.8173 73.6452C51.2341 71.8243 51.1434 69.8544 50.6023 67.9169C50.1714 76.8496 49.7437 85.792 49.3128 94.7246C49.1022 94.7214 48.9013 94.7214 48.694 94.7149C47.6377 80.6371 48.0557 66.5075 47.2748 52.4005C46.9508 59.36 46.6268 66.3163 46.2996 73.2758C46.1862 73.2791 46.0728 73.2888 45.9562 73.2985C45.8266 71.928 45.7002 70.5542 45.5674 69.1772C45.4313 69.174 45.292 69.1675 45.1559 69.1643C44.7898 78.071 44.4204 86.9746 44.0543 95.8846C44.0089 95.8846 43.9571 95.8846 43.9117 95.8846C43.6331 86.2132 43.3609 76.5353 43.079 66.8606C43.0272 66.8606 42.9754 66.8606 42.9332 66.8606C42.5704 80.0021 42.2107 93.1435 41.8543 106.285C41.8316 106.285 41.8057 106.285 41.7863 106.285C41.4558 89.3916 41.1318 72.4982 40.8046 55.6114C40.6231 55.5952 40.4449 55.5822 40.2635 55.566C40.1177 55.8284 39.9751 56.0909 39.8293 56.3533C39.6673 56.3468 39.515 56.3436 39.3563 56.3371C39.11 50.058 38.8638 43.7854 38.6143 37.5062C38.5787 37.503 38.543 37.503 38.5074 37.503C38.164 47.8192 37.814 58.1321 37.4641 68.445C37.4026 68.4515 37.341 68.4515 37.2794 68.4515C36.6152 56.5121 35.9543 44.5727 35.2901 32.63C35.2285 32.63 35.167 32.63 35.1054 32.63C34.749 57.4744 34.3894 82.3154 34.0362 107.163C33.9876 107.163 33.9422 107.163 33.9001 107.163C33.6085 89.7059 33.3202 72.2423 33.0318 54.7852C32.899 54.7852 32.7629 54.7852 32.6203 54.7852C32.319 59.0198 32.0209 63.2578 31.7228 67.4957C31.6159 67.5119 31.5025 67.5281 31.3924 67.5443C31.2077 67.1166 31.0295 66.6954 30.848 66.2677C30.7346 66.258 30.618 66.2483 30.5014 66.2386C30.2454 70.6417 29.9959 75.0514 29.7497 79.461C29.646 79.4772 29.5456 79.4902 29.4419 79.5161C29.2054 78.8162 28.9624 78.1229 28.7226 77.4263C28.5865 77.4263 28.4537 77.4295 28.3111 77.436C28.0422 82.9408 27.7668 88.4455 27.4914 93.9438C27.4104 93.947 27.3326 93.947 27.2549 93.947C27.0248 92.3627 26.8337 90.7686 26.5421 89.1842C26.3606 88.1928 25.9589 87.4055 24.7828 87.0361C24.2093 86.8612 23.8075 85.9378 23.4479 85.2898C23.2178 84.8621 23.2114 84.3178 22.8064 83.8285C22.4467 86.3719 22.0871 88.9153 21.7048 91.6045C21.0794 86.414 20.4638 81.3661 19.8515 76.315C19.683 76.3247 19.5145 76.3279 19.3428 76.3344C18.7564 79.8206 19.5372 83.498 18.2282 86.8774C18.0468 86.8774 17.8718 86.8774 17.6936 86.8774C17.415 83.6924 17.0651 80.5043 16.8869 77.3096C16.4171 69.1189 16.038 60.925 15.5812 52.7342C15.484 51.0138 15.2572 49.2966 14.9656 47.6053C14.8489 46.9314 14.3694 46.3288 14.107 45.671C13.8251 44.955 13.5691 44.2325 13.365 43.4905C13.203 42.9268 13.1252 42.3306 12.7235 41.7636C10.922 59.049 11.1683 76.3992 10.4004 93.704C9.95004 71.455 10.206 49.1864 8.78688 26.9665C8.586 26.96 8.3916 26.9568 8.1972 26.9503C7.93152 33.7576 7.6626 40.568 7.39692 47.385C7.26732 47.4012 7.13772 47.4142 7.01136 47.4304C6.79428 46.3482 6.58368 45.2628 6.37308 44.1774C4.21524 62.3344 3.68388 80.5853 2.74428 98.7973C2.53044 98.7941 2.31984 98.7941 2.10276 98.7876C2.10276 94.5076 2.13192 90.2243 2.08332 85.9442C2.0736 84.9042 1.90512 83.8512 1.63296 82.85C1.50336 82.3867 0.891001 81.6772 0.589681 81.716C0.405001 81.7452 0.20088 81.8327 0 81.9623V130.543C0.11988 134.972 0.23652 139.417 0.35964 143.853C0.40824 143.853 0.456841 143.859 0.502201 143.859C0.852121 136.365 1.20204 128.871 1.5552 121.383C1.66212 121.377 1.76904 121.374 1.8792 121.367C2.09304 125.518 2.31012 129.668 2.5272 133.825C2.57904 133.828 2.63412 133.835 2.68596 133.841C2.99376 129.733 3.3048 125.628 3.6126 121.523C3.7422 121.526 3.86856 121.526 3.99492 121.532C4.28328 133.78 4.57164 146.02 4.86 158.261C5.0058 158.271 5.15484 158.287 5.29092 158.306C5.43024 157.425 5.5728 156.55 5.71212 155.676C5.90328 155.676 6.08796 155.682 6.27588 155.685C6.51564 168.269 6.74568 180.85 6.9822 193.438C7.89912 170.648 7.79544 147.825 9.16596 125.058C9.37008 125.061 9.57096 125.061 9.77832 125.061C10.0246 136.977 10.2676 148.901 10.5138 160.821C10.5818 160.821 10.6466 160.821 10.7179 160.814C11.0063 150.738 11.2882 140.655 11.5765 130.572C11.6737 130.572 11.7677 130.566 11.8584 130.559C12.4772 144.99 13.1058 159.418 13.7279 173.852C13.8218 173.858 13.9093 173.858 14 173.862C14.7064 162.995 15.4192 152.131 16.1255 141.251C16.2551 141.264 16.3879 141.264 16.5175 141.264C16.6892 143.733 16.8512 146.215 17.0262 148.69C17.2076 148.69 17.3858 148.7 17.5705 148.7C18.225 140.937 18.8795 133.174 19.5372 125.407C19.6085 125.401 19.6862 125.401 19.764 125.401C19.9746 129.428 20.1884 133.443 20.399 137.47C20.5092 137.493 20.6194 137.509 20.7328 137.528C20.9531 137.201 21.1799 136.864 21.6626 136.158C22.0644 138.772 22.4046 141.005 22.7416 143.24C22.8452 143.24 22.9457 143.234 23.0558 143.231C23.2956 137.625 23.5451 132.011 23.801 126.101C26.5972 129.989 26.5972 129.989 27.2192 134.295C27.4201 133.579 27.621 132.866 27.8219 132.147C29.8307 150.492 29.3836 168.943 31.2854 187.282C32.8018 165.285 32.2218 143.247 33.0059 121.234C33.304 136.77 33.6085 152.319 33.9034 167.858C34.0135 167.858 34.1269 167.858 34.2338 167.864C34.4704 153.78 34.7069 139.706 34.9434 125.625C35.0114 125.625 35.073 125.625 35.1346 125.628C35.5396 138.85 35.9478 152.069 36.3463 165.295C36.612 165.298 36.8712 165.305 37.1369 165.308C39.2688 150.051 40.1144 134.69 40.7365 119.274C41.0962 124.863 41.4623 130.459 41.8187 136.051C41.9386 136.051 42.0584 136.051 42.1751 136.051C42.3241 134.47 42.4796 132.895 42.6287 131.324C42.7162 131.314 42.8036 131.301 42.8911 131.291C43.092 133.465 43.3804 135.639 43.4678 137.807C43.9214 148.833 44.3005 159.852 44.7541 170.871C44.8286 172.705 45.1429 174.536 45.3503 176.36C45.5706 176.36 45.7942 176.36 46.0145 176.36C46.2186 174.604 46.5491 172.848 46.5977 171.091C46.8536 162.418 47.0448 153.744 47.2424 145.074C47.2781 143.406 47.2457 141.737 47.453 140.055C47.79 152.805 48.1334 165.561 48.4801 178.31C48.6097 178.32 48.7361 178.32 48.8657 178.32C49.5137 160.837 50.1552 143.347 50.8032 125.871C50.868 125.871 50.9263 125.868 50.9911 125.868C51.2406 135.649 51.4901 145.444 51.7396 155.228C51.7784 155.228 51.827 155.228 51.8692 155.235C52.2288 147.958 52.5884 140.687 52.9481 133.413C53.1036 133.41 53.2526 133.404 53.4082 133.397C53.5702 135.62 53.7386 137.823 53.9006 140.046C53.9525 140.049 54.0076 140.049 54.0659 140.049C54.4352 137.026 54.8014 134.003 55.1707 130.977C55.2193 130.983 55.2679 130.987 55.3068 130.993C55.9192 142.071 56.5315 153.148 57.1439 164.229C57.348 164.226 57.5521 164.226 57.753 164.219C57.8567 162.82 57.9604 161.41 58.064 159.998C58.1774 158.413 58.8902 157.49 60.6236 157.519C61.965 157.529 62.2372 156.492 62.2922 155.471C62.4348 152.701 62.4154 149.928 62.6098 147.171C62.8366 143.95 63.2124 140.733 63.5461 137.519C63.5947 137.084 63.7988 136.67 64.2038 136.278C64.463 138.163 64.719 140.055 64.975 141.948C66.0895 134.729 65.4318 127.4 66.8898 120.22C68.4191 125.035 67.1684 130.216 68.9828 135.001C70.376 133.226 70.2983 131.126 70.7648 129.101C70.8588 130.42 71.0078 131.738 71.037 133.064C71.2735 143.043 71.4776 153.032 71.7206 163.008C71.7822 165.509 71.8567 168.026 72.0738 170.524C72.1451 171.312 72.9389 172.06 72.9583 172.838C73.2175 184.239 73.4054 195.628 73.5998 207.017C73.6322 208.951 73.7327 210.892 73.6096 212.819C73.5059 214.439 74.1409 214.861 75.4045 214.507C74.439 185.36 75.0125 156.265 76.0622 127.173C76.8172 156.22 77.1606 185.279 76.2858 214.384C78.0192 214.851 78.1391 214.763 78.1585 212.813C78.3011 196.875 78.4372 180.928 78.583 164.984C78.5894 164.151 78.583 163.315 78.8875 162.48C79.1564 169.147 79.4286 175.809 79.6975 182.477C79.7785 182.477 79.8563 182.48 79.9373 182.487C80.203 173.359 80.4686 164.216 80.7246 155.079C80.8477 155.079 80.9708 155.079 81.0875 155.073C81.4212 159.12 81.7517 163.163 82.0854 167.21C82.147 167.21 82.2118 167.21 82.2701 167.21C82.4742 162.386 82.6816 157.548 82.8824 152.727C82.9796 152.724 83.0833 152.724 83.1805 152.717C83.5499 156.233 83.9225 159.735 84.2886 163.247C84.3664 163.247 84.4409 163.247 84.5186 163.247C85.1828 152.218 85.847 141.177 86.5242 129.905C87.1819 141.141 87.8299 152.124 88.4779 163.108C88.5719 163.108 88.6658 163.098 88.7566 163.098C89.4013 150.459 90.0428 137.82 90.6844 125.187C90.8302 125.187 90.9824 125.187 91.125 125.187C91.1606 125.748 91.2028 126.321 91.2319 126.882C91.4036 130.115 91.4944 133.358 91.7762 136.582C91.8799 137.726 92.5247 138.815 92.8066 139.949C93.069 141.063 93.3023 142.2 93.3314 143.341C93.5712 153.576 93.7591 163.818 93.9892 174.066C94.028 176.036 94.2095 178.012 94.5691 179.966C96.1114 166.154 95.9267 152.248 96.6557 138.39C96.9764 151.059 96.5455 163.746 97.861 176.376C98.0554 176.386 98.2433 176.395 98.4409 176.405C98.6256 174.944 98.9237 173.486 98.9723 172.018C99.2412 162.612 99.4615 153.207 99.6656 143.801C99.7207 141.241 99.6689 138.682 100.035 136.122C100.372 144.974 100.712 153.819 101.052 162.671C101.188 162.671 101.334 162.671 101.474 162.661C101.616 160.218 101.759 157.778 101.898 155.332C101.953 155.322 102.011 155.313 102.06 155.313C102.348 158.174 102.637 161.031 102.919 163.886C103.084 163.886 103.249 163.876 103.418 163.866C103.674 154.519 103.929 145.168 104.189 135.821C104.296 135.821 104.399 135.818 104.503 135.818C104.801 144.054 105.093 152.293 105.384 160.536C105.452 160.536 105.514 160.536 105.582 160.536C105.87 148.165 106.152 135.779 106.44 123.402C106.583 123.389 106.729 123.379 106.868 123.369C107.173 126.276 107.477 129.189 107.775 132.095C107.879 132.101 107.976 132.111 108.08 132.121C108.226 131.184 108.368 130.258 108.511 129.328C108.64 129.292 108.77 129.257 108.896 129.224C109.149 130.371 109.574 131.499 109.629 132.659C109.992 141.225 110.335 149.785 110.578 158.349C110.701 162.732 110.597 167.109 110.597 171.5C110.847 171.503 111.106 171.509 111.352 171.516C111.974 160.027 112.593 148.531 113.219 137.039C113.244 137.033 113.27 137.033 113.3 137.029C113.682 141.245 114.061 145.47 114.443 149.691C114.508 149.691 114.579 149.691 114.647 149.691C114.877 144.608 115.111 139.518 115.341 134.437C115.402 134.437 115.464 134.437 115.532 134.437C115.901 139.375 116.274 144.316 116.64 149.247C116.705 149.247 116.76 149.254 116.821 149.254C117.074 141.121 117.327 132.996 117.573 124.87C117.644 124.863 117.716 124.863 117.787 124.857C118.147 131.249 118.513 137.629 118.866 144.024C119.038 144.024 119.203 144.024 119.375 144.024C119.375 139.216 119.336 134.418 119.394 129.613C119.407 127.999 119.553 126.37 119.844 124.789C119.964 124.141 120.625 123.59 121.043 122.99C121.542 123.57 122.372 124.098 122.472 124.74C122.802 126.791 122.858 128.894 123.02 130.971C123.062 131.489 123.097 131.998 123.288 132.522C123.92 127.675 124.549 122.825 125.174 117.981C125.375 117.991 125.579 118.001 125.783 118.007C126.392 126.415 127.002 134.816 127.614 143.224C127.747 143.231 127.883 143.24 128.019 143.25C128.375 138.361 127.834 133.358 129.27 128.602C129.483 128.579 129.697 128.566 129.918 128.55C130.144 129.513 130.449 130.462 130.582 131.44C130.728 132.454 130.705 133.501 130.773 134.693C131.252 134.541 131.567 134.431 132.121 134.249C132.263 135.834 132.506 137.363 132.539 138.899C132.775 150.508 132.937 162.104 133.196 173.703C133.345 180.235 133.618 186.76 133.854 193.292C133.88 194.06 134.036 194.834 134.123 195.602C134.304 195.602 134.479 195.589 134.654 195.589C134.962 174.16 135.267 152.721 135.571 131.288C135.626 131.285 135.685 131.285 135.743 131.285C136.057 146.364 136.385 161.452 136.709 176.538C136.77 176.538 136.828 176.538 136.887 176.538C137.169 157.153 137.447 137.762 137.729 118.377C137.781 118.373 137.836 118.373 137.894 118.373C138.28 131.444 138.659 144.517 139.045 157.59C139.181 157.597 139.307 157.603 139.443 157.607C139.579 156.554 139.722 155.501 139.855 154.454C139.942 154.454 140.03 154.454 140.111 154.454C140.422 160.114 140.733 165.765 141.044 171.428C141.167 171.428 141.296 171.428 141.416 171.428C142.058 155.928 142.709 140.438 143.357 124.934C143.393 124.934 143.432 124.928 143.47 124.925C143.833 131.936 144.199 138.947 144.562 145.968C144.702 145.968 144.838 145.959 144.98 145.959C145.123 144.323 145.272 142.677 145.418 141.031C145.515 141.018 145.619 140.998 145.716 140.989C146.053 142.323 146.396 143.662 146.736 144.993C146.84 144.996 146.944 144.996 147.054 145.003C147.255 142.181 147.449 139.356 147.647 136.543C147.793 136.511 147.948 136.482 148.1 136.462C148.476 137.467 148.855 138.481 149.364 139.816C149.532 138.121 149.682 136.809 149.808 135.503C149.882 135.494 149.954 135.477 150.028 135.477C150.391 136.472 150.767 137.47 151.127 138.471C151.266 138.458 151.428 138.448 151.574 138.439C151.765 135.63 151.95 132.827 152.137 130.018C152.251 130.011 152.377 130.002 152.491 129.995C152.853 131.528 153.22 133.054 153.651 134.91C153.9 132.701 154.104 130.834 154.311 128.975C154.564 128.991 154.817 129.007 155.06 129.023C156.417 143.96 156.372 158.977 157.098 173.962C157.341 154.593 157.587 135.228 157.84 115.866C157.931 115.869 158.021 115.869 158.102 115.869C158.394 134.003 158.676 152.137 158.954 170.268C159.078 170.272 159.201 170.272 159.327 170.278C159.534 161.077 159.758 151.878 159.978 142.673C161.012 149.558 160.723 156.605 163.128 163.28C164.686 157.788 163.383 152.005 165.088 146.535C166.724 150.096 166.202 153.968 167.016 157.668C167.359 141.63 167.719 125.592 168.069 109.551C168.111 109.551 168.159 109.551 168.195 109.551C168.418 122.721 168.642 135.899 168.862 149.069C168.96 149.076 169.063 149.076 169.164 149.079C169.925 142.349 170.69 135.626 171.441 128.89C171.509 128.897 171.581 128.9 171.645 128.907C171.882 144.64 172.122 160.37 172.358 176.107C172.426 176.107 172.485 176.107 172.549 176.107C172.867 164.459 173.194 152.818 173.521 141.177C173.625 141.177 173.729 141.186 173.839 141.186C174.069 148.052 174.306 154.927 174.536 161.793C174.613 161.793 174.681 161.783 174.756 161.783C175.096 155.753 175.449 149.707 175.783 143.675C176.269 148.253 175.909 152.886 177.409 157.357C179.208 151.314 178.599 145.061 179.366 138.889C179.593 140.985 179.833 143.069 180.063 145.165C180.173 145.175 180.274 145.184 180.387 145.191C180.747 142.275 181.116 139.346 181.479 136.427C181.861 142.583 181.981 148.719 183.3 154.729C183.501 154.729 183.698 154.729 183.906 154.72C184.184 146.348 184.443 137.985 184.716 129.613C184.745 129.613 184.78 129.613 184.816 129.613C185.185 141.575 185.561 153.534 185.931 165.493C185.97 165.493 185.999 165.493 186.034 165.493C186.319 156.226 186.592 146.97 186.873 137.7C186.984 137.706 187.104 137.706 187.214 137.71C187.551 138.429 187.884 139.129 188.225 139.842C188.425 139.842 188.62 139.848 188.824 139.848C189.09 138.468 189.511 137.11 189.602 135.724C189.793 132.808 189.809 129.872 189.932 126.95C189.974 126.068 190.023 125.155 190.279 124.322C190.434 123.81 190.998 123.425 191.367 122.984C191.802 123.431 192.456 123.813 192.612 124.348C192.916 125.385 193.026 126.509 193.065 127.598C193.26 133.028 193.399 138.458 193.687 143.905C194.037 137.344 194.397 130.766 194.75 124.199C196.597 139.197 196.577 154.286 197.17 169.361C197.51 152.037 197.851 134.713 198.188 117.382C198.201 117.382 198.217 117.382 198.226 117.382C198.557 136.248 198.881 155.099 199.198 173.959C199.38 173.969 199.552 173.982 199.733 174.001C200.041 172.349 200.339 170.693 200.64 169.044C200.861 169.021 201.094 168.992 201.324 168.969C201.897 171.445 202.484 173.923 203.061 176.402C204.681 158.303 203.952 140.136 205.73 122.083C206.949 135.536 206.521 149.034 207.065 162.522C207.989 156.236 208.899 149.96 209.822 143.675C209.981 143.684 210.15 143.688 210.305 143.694C210.749 149.944 211.19 156.194 211.621 162.437C211.676 162.428 211.724 162.428 211.773 162.418C212.022 154.538 212.262 146.659 212.515 138.769C212.625 138.759 212.725 138.753 212.839 138.747C213.176 142.385 213.522 146.024 213.85 149.549C214.517 141.238 215.198 132.824 215.871 124.403C216.017 124.403 216.173 124.403 216.325 124.4C216.409 125.845 216.484 127.303 216.584 128.754C216.685 130.271 216.746 131.787 216.924 133.284C217.086 134.752 217.378 136.197 217.608 137.664C217.867 137.658 218.123 137.655 218.373 137.648C218.541 135.474 218.71 133.313 218.859 131.142C219.001 128.913 219.111 126.694 219.491 124.471C220.689 131.152 220.897 137.885 220.997 144.617C221.091 151.363 221.017 158.099 221.017 164.838C221.227 164.845 221.441 164.845 221.648 164.848C221.995 156.243 222.342 147.631 222.692 139.035C222.76 139.035 222.828 139.025 222.902 139.025C223.171 152.536 223.443 166.047 223.716 179.558C223.826 179.558 223.933 179.571 224.046 179.58C224.114 178.699 224.153 177.811 224.247 176.94C224.71 172.99 224.205 168.901 226.048 165.156C226.346 156.434 226.628 147.708 226.946 138.99C227.247 130.74 227.587 122.485 227.921 114.242C227.95 113.692 228.073 113.147 228.524 112.619C228.802 128.618 229.078 144.617 229.347 160.61C229.457 160.61 229.557 160.61 229.671 160.61C229.956 154.007 230.244 147.41 230.529 140.807C230.656 140.797 230.792 140.797 230.915 140.797C231.096 143.746 231.265 146.688 231.443 149.643C231.517 149.649 231.579 149.659 231.644 149.662C232.02 145.418 232.402 141.177 232.784 136.919C232.885 136.919 232.979 136.919 233.082 136.919C233.228 138.52 233.384 140.13 233.536 141.737C233.659 141.737 233.795 141.74 233.922 141.747C234.255 136.077 234.582 130.42 234.906 124.756C235.004 124.756 235.098 124.75 235.198 124.75C235.473 140.12 235.746 155.481 236.021 170.855C236.096 170.855 236.167 170.855 236.241 170.855C236.52 159 236.812 147.151 237.103 135.293C237.207 135.293 237.304 135.293 237.411 135.286C237.706 154.143 237.997 173 238.289 191.85C238.331 191.85 238.37 191.85 238.399 191.85C238.733 169.692 239.073 147.517 239.404 125.359C239.498 125.359 239.582 125.359 239.666 125.359C239.805 132.348 239.922 139.336 240.087 146.338C240.259 153.362 240.395 160.399 241.293 167.385C241.497 167.385 241.707 167.385 241.918 167.385C242.193 161.067 242.456 154.739 242.725 148.418C242.747 148.418 242.76 148.418 242.783 148.421C243.152 154.422 243.528 160.422 243.914 166.426C244.144 166.426 244.387 166.432 244.626 166.432C244.899 163.902 245.294 161.381 245.42 158.847C245.799 151.441 246.039 144.018 246.408 136.611C246.512 134.285 246.862 131.978 247.095 129.662C247.306 129.629 247.507 129.6 247.711 129.574C248.207 131.162 248.89 132.717 249.162 134.343C249.616 137.01 249.804 139.722 250.105 142.417C250.196 143.195 250.167 144.018 250.423 144.731C250.643 145.346 251.168 146.254 251.612 146.289C252.15 146.338 252.957 145.713 253.284 145.165C255.244 141.867 255.536 138.154 255.769 134.444C255.869 132.905 255.785 131.366 255.785 129.827C255.95 129.827 256.122 129.82 256.3 129.814C256.605 130.932 256.9 132.046 257.204 133.158C257.292 133.148 257.386 133.138 257.476 133.128C257.914 126.814 258.351 120.509 258.785 114.194C258.951 114.194 259.113 114.194 259.275 114.184C259.368 115.35 259.53 116.514 259.55 117.68C259.78 129.542 259.984 141.4 260.191 153.268C260.402 165.389 260.616 177.52 260.833 189.64C260.856 190.826 261.014 192.009 261.105 193.191C261.287 193.185 261.465 193.185 261.656 193.185C261.973 186.368 262.262 179.545 262.628 172.721C262.981 165.943 263.435 159.168 263.846 152.397C263.998 152.397 264.154 152.387 264.309 152.387C264.481 155.335 264.659 158.287 264.841 161.248C264.97 161.248 265.113 161.248 265.243 161.248C265.593 149.669 265.946 138.089 266.26 127.436C266.85 143.824 267.478 161.145 268.1 178.472C268.311 178.472 268.512 178.472 268.722 178.472C269.221 166.024 268.742 153.489 271.661 141.274C271.842 141.264 272.024 141.251 272.192 141.251C272.413 141.97 272.627 142.686 272.834 143.409C272.941 143.415 273.035 143.425 273.132 143.432C273.407 139.443 273.68 135.442 273.952 131.453C274.046 131.437 274.143 131.414 274.237 131.398C274.457 132.147 274.554 132.97 274.946 133.634C275.296 134.243 275.951 134.687 276.472 135.208C276.894 134.603 277.613 134.032 277.665 133.401C277.989 130.183 278.138 126.946 278.313 123.716C278.368 122.78 278.322 121.837 278.611 120.888C278.841 122.611 278.964 124.364 279.356 126.055C279.57 127.011 280.283 127.847 280.655 128.771C281.096 129.866 281.407 131.013 281.883 132.435C282.198 129.616 282.483 127.002 282.771 124.393C282.923 124.4 283.072 124.406 283.225 124.41C283.526 140.101 283.824 155.789 284.116 171.487C284.148 171.487 284.167 171.487 284.197 171.487C284.534 153.9 284.883 136.323 285.227 118.743C285.288 118.743 285.353 118.743 285.421 118.746C285.69 136.385 285.956 154.023 286.218 171.658C286.38 171.668 286.546 171.668 286.704 171.678C286.986 165.48 287.255 159.275 287.537 153.074C287.589 153.077 287.637 153.077 287.689 153.077C287.958 160.386 288.23 167.689 288.49 174.996C288.587 174.996 288.674 174.996 288.768 174.996C288.924 166.98 289.073 158.974 289.241 150.958C289.413 142.952 289.494 134.952 290.388 126.995C290.599 126.995 290.8 126.995 291.01 126.995C291.211 132.228 291.396 137.457 291.587 142.69V98.7163H291.6Z" fill="white"/>
</svg>
